<?xml version="1.0" encoding="UTF-8" standalone="no"?>
<svg
   width="1503.3896"
   zoomAndPan="magnify"
   viewBox="0 0 1127.5422 267.53907"
   height="356.71878"
   preserveAspectRatio="xMidYMid"
   version="1.0"
   id="svg187"
   xmlns="http://www.w3.org/2000/svg"
   xmlns:svg="http://www.w3.org/2000/svg">
  <defs
     id="defs2">
    <clipPath
       id="63d0af812c">
      <path
         d="M 236,624.38281 H 506.85937 V 758 H 236 Z m 0,0"
         clip-rule="nonzero"
         id="path1" />
    </clipPath>
    <clipPath
       id="18989c4c07">
      <path
         d="M 209.10937,711 H 466 V 892.13281 H 209.10937 Z m 0,0"
         clip-rule="nonzero"
         id="path2" />
    </clipPath>
    <clipPath
       id="35e7d9c0a0">
      <rect
         x="0"
         width="596"
         y="0"
         height="129"
         id="rect2" />
    </clipPath>
  </defs>
  <g
     clip-path="url(#63d0af812c)"
     id="g3"
     transform="translate(-209.10938,-624.49221)">
    <path
       fill="#c1ff72"
       d="m 324.30469,729.97266 c 1.46093,-11.24219 8.50781,-20.76563 18.22265,-25.72266 l -48.96093,-34.35547 c 25.97265,-11.74609 49.98046,-13.90625 64.26562,-13.90625 18.86328,0 54.67969,3.8125 89.47656,28.26172 -0.0625,6.34766 -0.125,12.63672 -0.3164,18.73047 -13.27344,-7.7461 -27.4336,-13.71485 -42.23047,-17.01953 L 506.625,757.40625 c -5.90625,-9.65625 -13.01953,-17.52734 -20.51563,-24.89453 -2.79296,-2.60547 -5.64843,-5.14453 -8.57031,-7.6836 1.07813,-15.8789 1.26953,-32.07031 1.26953,-48.51953 V 668.625 l -6.09765,-4.76172 c -44.07032,-34.23047 -90.8711,-39.37109 -114.87891,-39.37109 -20.12891,0 -56.26172,3.61718 -93.47656,25.01953 -7.17578,4.1289 -14.35156,8.89062 -21.46485,14.41406 l -6.09375,4.76563 31.625,22.16015 z m 0,0"
       fill-opacity="1"
       fill-rule="nonzero"
       id="path3" />
  </g>
  <g
     clip-path="url(#18989c4c07)"
     id="g4"
     transform="translate(-209.10938,-624.49221)">
    <path
       fill="#c1ff72"
       d="m 391.42578,738.54297 c -1.33203,11.30469 -8.31641,20.83203 -17.96875,25.91015 l 52.39063,36.76954 c -13.14844,23.05078 -34.23047,42.03906 -68.07813,56.77343 -47.24609,-20.57812 -69.66406,-49.59765 -80.26953,-86.17578 14.60547,8.57422 30.10156,15.4961 46.29687,19.75 l -114.6875,-80.46094 c 6.92188,10.48047 15.11329,19.11719 23.6836,27.24219 2.35156,2.16016 4.76562,4.25781 7.17578,6.28906 2.28906,18.28907 6.22656,35.94141 13.01953,52.76954 16.89063,41.97656 49.28125,72.14062 98.9375,92.21093 l 5.90625,2.41016 5.90625,-2.41016 c 40.57813,-16.38672 69.60156,-39.5 88.08203,-70.30078 4.125,-6.92187 7.7461,-14.22265 10.85938,-21.91015 0.95312,-2.34766 1.83984,-4.69922 2.66406,-7.10938 L 438.23047,771.3125 Z m 0,0"
       fill-opacity="1"
       fill-rule="nonzero"
       id="path4" />
  </g>
  <path
     fill="#ff3131"
     d="m 171.58593,109.92576 c 0,-12.640629 -10.22265,-22.863279 -22.86328,-22.863279 -12.63672,0 -22.85937,10.22265 -22.85937,22.863279 0,9.77734 6.16015,18.16015 14.79687,21.39844 l -7.30469,25.27343 c 4.06641,3.17578 11.11328,4.51172 15.36719,4.51172 4.25781,0 11.30469,-1.33594 15.37109,-4.51172 l -7.24218,-25.27343 c 8.57422,-3.23829 14.73437,-11.5586 14.73437,-21.39844 z m 0,0"
     fill-opacity="1"
     fill-rule="nonzero"
     id="path5" />
  <g
     transform="translate(322.89062,55.507791)"
     id="g40">
    <g
       clip-path="url(#35e7d9c0a0)"
       id="g39">
      <g
         fill="#c1ff72"
         fill-opacity="1"
         id="g8">
        <g
           transform="translate(0.374655,92.196619)"
           id="g7">
          <g
             id="g6">
            <path
               d="m 6.125,-84.265625 h 30.140625 c 8.101563,0 14.707031,2.164063 19.8125,6.484375 5.101563,4.324219 7.65625,10.507812 7.65625,18.546875 0,6.1875 -1.554687,11.375 -4.65625,15.5625 -3.09375,4.1875 -7.296875,7.136719 -12.609375,8.84375 L 75.484375,0 h -24.40625 l -25.75,-33.296875 V 0 H 6.125 Z M 25.328125,-46.875 h 2.25 c 1.769531,0 3.265625,-0.03516 4.484375,-0.109375 1.226562,-0.07031 2.625,-0.3125 4.1875,-0.71875 1.570312,-0.40625 2.832031,-0.984375 3.78125,-1.734375 0.957031,-0.75 1.773438,-1.835938 2.453125,-3.265625 0.6875,-1.425781 1.03125,-3.160156 1.03125,-5.203125 0,-2.050781 -0.34375,-3.789062 -1.03125,-5.21875 -0.679687,-1.425781 -1.496094,-2.515625 -2.453125,-3.265625 -0.949219,-0.75 -2.210938,-1.328125 -3.78125,-1.734375 -1.5625,-0.40625 -2.960938,-0.640625 -4.1875,-0.703125 -1.21875,-0.07031 -2.714844,-0.109375 -4.484375,-0.109375 h -2.25 z m 0,0"
               id="path6" />
          </g>
        </g>
      </g>
      <g
         fill="#ff3131"
         fill-opacity="1"
         id="g11">
        <g
           transform="translate(73.509353,92.196619)"
           id="g10">
          <g
             id="g9">
            <path
               d="M 54.84375,-84.265625 V -67.40625 H 25.328125 v 16.75 h 27.28125 V -33.8125 H 25.328125 V 0 H 6.125 v -84.265625 z m 0,0"
               id="path8" />
          </g>
        </g>
      </g>
      <g
         fill="#666666"
         fill-opacity="1"
         id="g14">
        <g
           transform="translate(131.43259,92.196619)"
           id="g13">
          <g
             id="g12" />
        </g>
      </g>
      <g
         fill="#ffffff"
         fill-opacity="1"
         id="g17">
        <g
           transform="translate(159.32193,92.196619)"
           id="g16">
          <g
             id="g15">
            <path
               d="m 37.171875,-85.796875 c 4.5625,0 9.019531,0.667969 13.375,2 4.363281,1.324219 7.601563,2.632813 9.71875,3.921875 l 3.0625,2.046875 -7.765625,15.3125 c -0.617188,-0.40625 -1.46875,-0.929687 -2.5625,-1.578125 -1.085938,-0.644531 -3.125,-1.507812 -6.125,-2.59375 -2.992188,-1.09375 -5.78125,-1.640625 -8.375,-1.640625 -3.199219,0 -5.667969,0.683594 -7.40625,2.046875 -1.730469,1.355469 -2.59375,3.1875 -2.59375,5.5 0,1.167969 0.40625,2.246094 1.21875,3.234375 0.820312,0.980469 2.21875,2.03125 4.1875,3.15625 1.976562,1.125 3.710938,2.03125 5.203125,2.71875 1.5,0.679687 3.816406,1.695313 6.953125,3.046875 5.445312,2.324219 10.09375,5.476562 13.9375,9.453125 3.851562,3.980469 5.78125,8.492187 5.78125,13.53125 0,4.835937 -0.871094,9.058594 -2.609375,12.671875 -1.742187,3.605469 -4.125,6.429688 -7.15625,8.46875 -3.023437,2.042969 -6.371094,3.558594 -10.046875,4.546875 -3.679688,0.988281 -7.664062,1.484375 -11.953125,1.484375 -3.679687,0 -7.289063,-0.375 -10.828125,-1.125 -3.542969,-0.75 -6.507812,-1.679688 -8.890625,-2.796875 -2.386719,-1.125 -4.53125,-2.234375 -6.4375,-3.328125 -1.90625,-1.09375 -3.304687,-2.015625 -4.1875,-2.765625 L 2.34375,-9.59375 11.953125,-25.734375 c 0.8125,0.679687 1.929687,1.546875 3.359375,2.609375 1.4375,1.054688 3.972656,2.464844 7.609375,4.234375 3.644531,1.773437 6.863281,2.65625 9.65625,2.65625 8.101563,0 12.15625,-2.757813 12.15625,-8.28125 0,-1.15625 -0.292969,-2.226563 -0.875,-3.21875 -0.574219,-0.988281 -1.59375,-1.972656 -3.0625,-2.953125 -1.460937,-0.988281 -2.75,-1.769531 -3.875,-2.34375 -1.125,-0.582031 -2.964844,-1.46875 -5.515625,-2.65625 -2.554688,-1.195312 -4.445312,-2.101562 -5.671875,-2.71875 -5.105469,-2.519531 -9.054687,-5.664062 -11.84375,-9.4375 -2.792969,-3.78125 -4.1875,-7.851562 -4.1875,-12.21875 0,-7.550781 2.789063,-13.726562 8.375,-18.53125 5.582031,-4.800781 11.945313,-7.203125 19.09375,-7.203125 z m 0,0"
               id="path14" />
          </g>
        </g>
      </g>
      <g
         fill="#ffffff"
         fill-opacity="1"
         id="g20">
        <g
           transform="translate(227.96086,92.196619)"
           id="g19">
          <g
             id="g18">
            <path
               d="m 59.140625,-23.703125 h -38 c 0,3.679687 1.191406,6.402344 3.578125,8.171875 2.382812,1.773438 4.972656,2.65625 7.765625,2.65625 2.925781,0 5.238281,-0.390625 6.9375,-1.171875 1.707031,-0.78125 3.648437,-2.328125 5.828125,-4.640625 l 13.078125,6.53125 c -5.449219,9.125 -14.507813,13.6875 -27.171875,13.6875 -7.90625,0 -14.6875,-2.703125 -20.34375,-8.109375 -5.648438,-5.414063 -8.46875,-11.9375 -8.46875,-19.5625 0,-7.632813 2.820312,-14.175781 8.46875,-19.625 5.65625,-5.445313 12.4375,-8.171875 20.34375,-8.171875 8.300781,0 15.054688,2.402344 20.265625,7.203125 5.207031,4.804687 7.8125,11.667969 7.8125,20.59375 0,1.21875 -0.03125,2.03125 -0.09375,2.4375 z m -37.484375,-10 h 19.921875 c -0.417969,-2.726563 -1.496094,-4.820313 -3.234375,-6.28125 -1.730469,-1.46875 -3.960938,-2.203125 -6.6875,-2.203125 -2.992188,0 -5.371094,0.789062 -7.140625,2.359375 -1.773437,1.5625 -2.726563,3.605469 -2.859375,6.125 z m 0,0"
               id="path17" />
          </g>
        </g>
      </g>
      <g
         fill="#ffffff"
         fill-opacity="1"
         id="g23">
        <g
           transform="translate(289.55204,92.196619)"
           id="g22">
          <g
             id="g21">
            <path
               d="m 34.015625,-39.125 c -3.40625,0 -6.339844,1.261719 -8.796875,3.78125 -2.449219,2.523438 -3.671875,5.554688 -3.671875,9.09375 0,3.605469 1.222656,6.667969 3.671875,9.1875 2.457031,2.523438 5.390625,3.78125 8.796875,3.78125 1.632813,0 3.179687,-0.203125 4.640625,-0.609375 1.46875,-0.40625 2.539062,-0.8125 3.21875,-1.21875 l 0.921875,-0.625 6.125,12.5625 c -0.480469,0.34375 -1.148437,0.773437 -2,1.28125 -0.84375,0.511719 -2.78125,1.210937 -5.8125,2.09375 -3.03125,0.882813 -6.28125,1.328125 -9.75,1.328125 -7.699219,0 -14.460937,-2.703125 -20.28125,-8.109375 -5.824219,-5.414063 -8.734375,-11.90625 -8.734375,-19.46875 0,-7.625 2.910156,-14.175781 8.734375,-19.65625 5.820313,-5.488281 12.582031,-8.234375 20.28125,-8.234375 3.46875,0 6.664063,0.414062 9.59375,1.234375 2.925781,0.8125 5.003906,1.632813 6.234375,2.453125 l 1.734375,1.21875 -6.125,12.359375 c -2.25,-1.632813 -5.179687,-2.453125 -8.78125,-2.453125 z m 0,0"
               id="path20" />
          </g>
        </g>
      </g>
      <g
         fill="#ffffff"
         fill-opacity="1"
         id="g26">
        <g
           transform="translate(339.70341,92.196619)"
           id="g25">
          <g
             id="g24">
            <path
               d="m 23.1875,-52.390625 v 24.921875 c 0,5.167969 0.78125,8.84375 2.34375,11.03125 1.570312,2.179688 4.226562,3.265625 7.96875,3.265625 3.75,0 6.40625,-1.085937 7.96875,-3.265625 1.5625,-2.1875 2.34375,-5.863281 2.34375,-11.03125 v -24.921875 h 18.078125 v 29.3125 c 0,8.710937 -2.265625,14.992187 -6.796875,18.84375 C 50.570312,-0.390625 43.375,1.53125 33.5,1.53125 c -9.875,0 -17.078125,-1.921875 -21.609375,-5.765625 -4.523437,-3.851563 -6.78125,-10.132813 -6.78125,-18.84375 v -29.3125 z m 0,0"
               id="path23" />
          </g>
        </g>
      </g>
      <g
         fill="#ffffff"
         fill-opacity="1"
         id="g29">
        <g
           transform="translate(406.70806,92.196619)"
           id="g28">
          <g
             id="g27">
            <path
               d="m 6.125,0 v -52.390625 h 18.078125 v 7.546875 h 0.203125 c 0.132812,-0.269531 0.351562,-0.609375 0.65625,-1.015625 0.3125,-0.40625 0.976562,-1.117187 2,-2.140625 1.019531,-1.019531 2.109375,-1.9375 3.265625,-2.75 1.164063,-0.820312 2.664063,-1.554688 4.5,-2.203125 1.84375,-0.65625 3.71875,-0.984375 5.625,-0.984375 1.96875,0 3.90625,0.277344 5.8125,0.828125 1.90625,0.542969 3.300781,1.085937 4.1875,1.625 l 1.4375,0.828125 -7.5625,15.3125 c -2.25,-1.90625 -5.382813,-2.859375 -9.390625,-2.859375 -2.1875,0 -4.0625,0.480469 -5.625,1.4375 -1.5625,0.949219 -2.667969,2.105469 -3.3125,3.46875 -0.648438,1.367187 -1.109375,2.527344 -1.390625,3.484375 -0.273437,0.949219 -0.40625,1.695312 -0.40625,2.234375 V 0 Z m 0,0"
               id="path26" />
          </g>
        </g>
      </g>
      <g
         fill="#ffffff"
         fill-opacity="1"
         id="g32">
        <g
           transform="translate(457.57441,92.196619)"
           id="g31">
          <g
             id="g30">
            <path
               d="m 7.859375,-81.609375 c 2.113281,-2.113281 4.632813,-3.171875 7.5625,-3.171875 2.925781,0 5.441406,1.058594 7.546875,3.171875 2.113281,2.117187 3.171875,4.636719 3.171875,7.5625 0,2.929687 -1.058594,5.449219 -3.171875,7.5625 -2.105469,2.105469 -4.621094,3.15625 -7.546875,3.15625 -2.929687,0 -5.449219,-1.050781 -7.5625,-3.15625 -2.105469,-2.113281 -3.15625,-4.632813 -3.15625,-7.5625 0,-2.925781 1.050781,-5.445313 3.15625,-7.5625 z M 6.125,-52.390625 V 0 h 18.078125 v -52.390625 z m 0,0"
               id="path29" />
          </g>
        </g>
      </g>
      <g
         fill="#ffffff"
         fill-opacity="1"
         id="g35">
        <g
           transform="translate(488.42106,92.196619)"
           id="g34">
          <g
             id="g33">
            <path
               d="M 9.1875,-52.390625 V -71.90625 h 18.078125 v 19.515625 h 11.03125 v 13.78125 h -11.03125 v 16.65625 c 0,4.835937 1.363281,7.25 4.09375,7.25 0.675781,0 1.390625,-0.132813 2.140625,-0.40625 0.75,-0.28125 1.328125,-0.554687 1.734375,-0.828125 l 0.609375,-0.40625 4.5,14.609375 C 36.46875,0.441406 32.039062,1.53125 27.0625,1.53125 23.65625,1.53125 20.726562,0.9375 18.28125,-0.25 15.832031,-1.445312 13.976562,-3.046875 12.71875,-5.046875 11.457031,-7.054688 10.550781,-9.164062 10,-11.375 9.457031,-13.59375 9.1875,-15.960938 9.1875,-18.484375 v -20.125 H 1.640625 v -13.78125 z m 0,0"
               id="path32" />
          </g>
        </g>
      </g>
      <g
         fill="#ffffff"
         fill-opacity="1"
         id="g38">
        <g
           transform="translate(528.76688,92.196619)"
           id="g37">
          <g
             id="g36">
            <path
               d="m 45.859375,-52.390625 h 20.84375 L 25.53125,26.5625 H 4.703125 L 22.78125,-8.171875 -2.046875,-52.390625 h 20.84375 L 33.40625,-25.53125 Z m 0,0"
               id="path35" />
          </g>
        </g>
      </g>
    </g>
  </g>
  <g
     fill="#ffffff"
     fill-opacity="1"
     id="g43"
     transform="translate(-209.10938,-624.49221)">
    <g
       transform="translate(536.20494,827.49418)"
       id="g42">
      <g
         id="g41">
        <path
           d="m 17.1875,0 v -10.796875 c 0,-0.132813 0.0039,-0.820313 0.01563,-2.0625 0.01953,-1.238281 0.03125,-2.070313 0.03125,-2.5 H 17.15625 L 12.046875,0 H 9.59375 L 4.484375,-15.328125 H 4.40625 c 0,0.617187 0.00391,1.492187 0.015625,2.625 0.019531,1.136719 0.03125,1.773437 0.03125,1.90625 V 0 H 2.0625 v -18.28125 h 3.53125 l 5.203125,15.453125 H 10.875 L 16.046875,-18.28125 H 19.59375 V 0 Z m 0,0"
           id="path40" />
      </g>
    </g>
  </g>
  <g
     fill="#ffffff"
     fill-opacity="1"
     id="g46"
     transform="translate(-209.10938,-624.49221)">
    <g
       transform="translate(558.64218,827.49418)"
       id="g45">
      <g
         id="g44">
        <path
           d="m 16.28125,-9.140625 c 0,-2.132813 -0.570312,-3.90625 -1.703125,-5.3125 -1.125,-1.414063 -2.683594,-2.125 -4.671875,-2.125 -1.960938,0 -3.511719,0.710937 -4.65625,2.125 -1.136719,1.40625 -1.703125,3.179687 -1.703125,5.3125 0,2.210937 0.578125,4 1.734375,5.375 1.164062,1.375 2.707031,2.0625 4.625,2.0625 1.882812,0 3.414062,-0.671875 4.59375,-2.015625 1.1875,-1.34375 1.78125,-3.148438 1.78125,-5.421875 z m 2.53125,0 c 0,2.730469 -0.789062,5.015625 -2.359375,6.859375 C 14.878906,-0.4375 12.695312,0.484375 9.90625,0.484375 7.101562,0.484375 4.914062,-0.4375 3.34375,-2.28125 1.78125,-4.125 1,-6.410156 1,-9.140625 1,-11.878906 1.78125,-14.164062 3.34375,-16 c 1.570312,-1.84375 3.757812,-2.765625 6.5625,-2.765625 2.875,0 5.078125,0.9375 6.609375,2.8125 1.53125,1.875 2.296875,4.148437 2.296875,6.8125 z m 0,0"
           id="path43" />
      </g>
    </g>
  </g>
  <g
     fill="#ffffff"
     fill-opacity="1"
     id="g49"
     transform="translate(-209.10938,-624.49221)">
    <g
       transform="translate(579.23918,827.49418)"
       id="g48">
      <g
         id="g47">
        <path
           d="m 14.171875,-18.28125 h 2.375 V 0 h -2.75 l -9.3125,-14.78125 h -0.0625 V 0 H 2.0625 v -18.28125 h 2.90625 l 9.140625,14.765625 h 0.0625 z m 0,0"
           id="path46" />
      </g>
    </g>
  </g>
  <g
     fill="#ffffff"
     fill-opacity="1"
     id="g52"
     transform="translate(-209.10938,-624.49221)">
    <g
       transform="translate(598.64252,827.49418)"
       id="g51">
      <g
         id="g50">
        <path
           d="M 4.546875,0 H 2.0625 v -18.28125 h 2.484375 z m 0,0"
           id="path49" />
      </g>
    </g>
  </g>
  <g
     fill="#ffffff"
     fill-opacity="1"
     id="g55"
     transform="translate(-209.10938,-624.49221)">
    <g
       transform="translate(605.99731,827.49418)"
       id="g54">
      <g
         id="g53">
        <path
           d="M 6.46875,-16.09375 H 0.3125 v -2.1875 h 14.84375 v 2.1875 H 8.9375 V 0 H 6.46875 Z m 0,0"
           id="path52" />
      </g>
    </g>
  </g>
  <g
     fill="#ffffff"
     fill-opacity="1"
     id="g58"
     transform="translate(-209.10938,-624.49221)">
    <g
       transform="translate(622.25484,827.49418)"
       id="g57">
      <g
         id="g56">
        <path
           d="m 16.28125,-9.140625 c 0,-2.132813 -0.570312,-3.90625 -1.703125,-5.3125 -1.125,-1.414063 -2.683594,-2.125 -4.671875,-2.125 -1.960938,0 -3.511719,0.710937 -4.65625,2.125 -1.136719,1.40625 -1.703125,3.179687 -1.703125,5.3125 0,2.210937 0.578125,4 1.734375,5.375 1.164062,1.375 2.707031,2.0625 4.625,2.0625 1.882812,0 3.414062,-0.671875 4.59375,-2.015625 1.1875,-1.34375 1.78125,-3.148438 1.78125,-5.421875 z m 2.53125,0 c 0,2.730469 -0.789062,5.015625 -2.359375,6.859375 C 14.878906,-0.4375 12.695312,0.484375 9.90625,0.484375 7.101562,0.484375 4.914062,-0.4375 3.34375,-2.28125 1.78125,-4.125 1,-6.410156 1,-9.140625 1,-11.878906 1.78125,-14.164062 3.34375,-16 c 1.570312,-1.84375 3.757812,-2.765625 6.5625,-2.765625 2.875,0 5.078125,0.9375 6.609375,2.8125 1.53125,1.875 2.296875,4.148437 2.296875,6.8125 z m 0,0"
           id="path55" />
      </g>
    </g>
  </g>
  <g
     fill="#ffffff"
     fill-opacity="1"
     id="g61"
     transform="translate(-209.10938,-624.49221)">
    <g
       transform="translate(642.85185,827.49418)"
       id="g60">
      <g
         id="g59">
        <path
           d="m 4.546875,-9.96875 h 5.71875 c 1.320313,0 2.269531,-0.269531 2.84375,-0.8125 0.582031,-0.539062 0.875,-1.320312 0.875,-2.34375 0,-0.925781 -0.25,-1.664062 -0.75,-2.21875 -0.5,-0.550781 -1.355469,-0.828125 -2.5625,-0.828125 h -6.125 z m 0,9.96875 H 2.0625 v -18.28125 h 8.453125 c 1.96875,0 3.457031,0.421875 4.46875,1.265625 C 15.992188,-16.179688 16.5,-14.96875 16.5,-13.375 c 0,1.054688 -0.203125,1.933594 -0.609375,2.640625 -0.40625,0.710937 -1.042969,1.292969 -1.90625,1.75 0.738281,0.273437 1.273437,0.65625 1.609375,1.15625 0.332031,0.492187 0.523438,1.25 0.578125,2.28125 l 0.15625,3.40625 c 0.01953,0.5625 0.109375,0.960937 0.265625,1.1875 0.164062,0.230469 0.394531,0.414063 0.6875,0.546875 V 0 h -3.0625 C 14.0625,-0.457031 13.945312,-1.148438 13.875,-2.078125 13.8125,-3.003906 13.78125,-3.84375 13.78125,-4.59375 c 0,-0.375 -0.03906,-0.753906 -0.109375,-1.140625 -0.0625,-0.382813 -0.210937,-0.734375 -0.4375,-1.046875 C 13.015625,-7.101562 12.6875,-7.359375 12.25,-7.546875 11.820312,-7.742188 11.242188,-7.84375 10.515625,-7.84375 h -5.96875 z m 0,0"
           id="path58" />
      </g>
    </g>
  </g>
  <g
     fill="#ffffff"
     fill-opacity="1"
     id="g64"
     transform="translate(-209.10938,-624.49221)">
    <g
       transform="translate(661.81999,827.49418)"
       id="g63">
      <g
         id="g62">
        <path
           d="M 4.546875,0 H 2.0625 v -18.28125 h 2.484375 z m 0,0"
           id="path61" />
      </g>
    </g>
  </g>
  <g
     fill="#ffffff"
     fill-opacity="1"
     id="g67"
     transform="translate(-209.10938,-624.49221)">
    <g
       transform="translate(669.17478,827.49418)"
       id="g66">
      <g
         id="g65">
        <path
           d="m 14.171875,-18.28125 h 2.375 V 0 h -2.75 l -9.3125,-14.78125 h -0.0625 V 0 H 2.0625 v -18.28125 h 2.90625 l 9.140625,14.765625 h 0.0625 z m 0,0"
           id="path64" />
      </g>
    </g>
  </g>
  <g
     fill="#ffffff"
     fill-opacity="1"
     id="g70"
     transform="translate(-209.10938,-624.49221)">
    <g
       transform="translate(688.57812,827.49418)"
       id="g69">
      <g
         id="g68">
        <path
           d="m 9.796875,-9.78125 h 8.03125 V 0 h -1.59375 L 15.625,-2.359375 C 14.851562,-1.367188 13.9375,-0.644531 12.875,-0.1875 11.820312,0.257812 10.726562,0.484375 9.59375,0.484375 7.769531,0.484375 6.238281,0.0820312 5,-0.71875 3.769531,-1.519531 2.816406,-2.625 2.140625,-4.03125 1.460938,-5.4375 1.125,-7.191406 1.125,-9.296875 c 0,-2.632813 0.78125,-4.867187 2.34375,-6.703125 1.5625,-1.84375 3.664062,-2.765625 6.3125,-2.765625 1.96875,0 3.6875,0.554687 5.15625,1.65625 1.476562,1.105469 2.335938,2.5625 2.578125,4.375 h -2.375 c -0.292969,-1.195313 -0.90625,-2.132813 -1.84375,-2.8125 -0.9375,-0.6875 -2.152344,-1.03125 -3.640625,-1.03125 -1.804688,0 -3.25,0.679687 -4.34375,2.03125 -1.09375,1.355469 -1.640625,3.148437 -1.640625,5.375 0,2.605469 0.539063,4.515625 1.625,5.734375 1.082031,1.210938 2.566406,1.8125 4.453125,1.8125 1.226562,0 2.265625,-0.238281 3.109375,-0.71875 0.851563,-0.488281 1.503906,-1.148438 1.953125,-1.984375 C 15.269531,-5.160156 15.5,-6.269531 15.5,-7.65625 H 9.796875 Z m 0,0"
           id="path67" />
      </g>
    </g>
  </g>
  <g
     fill="#ffffff"
     fill-opacity="1"
     id="g73"
     transform="translate(-209.10938,-624.49221)">
    <g
       transform="translate(716.00769,827.49418)"
       id="g72">
      <g
         id="g71">
        <path
           d="m 8.984375,-9.140625 c 0,1.136719 -0.390625,2.085937 -1.171875,2.84375 -0.773438,0.761719 -1.730469,1.140625 -2.875,1.140625 -1.136719,0 -2.085938,-0.378906 -2.84375,-1.140625 -0.75,-0.757813 -1.125,-1.707031 -1.125,-2.84375 0,-1.132813 0.375,-2.085937 1.125,-2.859375 0.757812,-0.78125 1.707031,-1.171875 2.84375,-1.171875 1.144531,0 2.101562,0.390625 2.875,1.171875 0.78125,0.773438 1.171875,1.726562 1.171875,2.859375 z m 0,0"
           id="path70" />
      </g>
    </g>
  </g>
  <g
     fill="#ffffff"
     fill-opacity="1"
     id="g79"
     transform="translate(-209.10938,-624.49221)">
    <g
       transform="translate(733.76359,827.49418)"
       id="g78">
      <g
         id="g77">
        <path
           d="M 11.203125,-7.515625 8.5,-15.5625 H 8.453125 l -2.9375,8.046875 z m -6.4375,2.1875 L 2.84375,0 H 0.3125 l 6.875,-18.28125 H 9.984375 L 16.609375,0 H 13.90625 l -1.8125,-5.328125 z m 0,0"
           id="path76" />
      </g>
    </g>
  </g>
  <g
     fill="#ffffff"
     fill-opacity="1"
     id="g82"
     transform="translate(-209.10938,-624.49221)">
    <g
       transform="translate(751.53807,827.49418)"
       id="g81">
      <g
         id="g80">
        <path
           d="m 4.5,-2.1875 h 9.296875 V 0 H 2.0625 V -18.28125 H 4.5 Z m 0,0"
           id="path79" />
      </g>
    </g>
  </g>
  <g
     fill="#ffffff"
     fill-opacity="1"
     id="g85"
     transform="translate(-209.10938,-624.49221)">
    <g
       transform="translate(766.49003,827.49418)"
       id="g84">
      <g
         id="g83">
        <path
           d="M 11.203125,-7.515625 8.5,-15.5625 H 8.453125 l -2.9375,8.046875 z m -6.4375,2.1875 L 2.84375,0 H 0.3125 l 6.875,-18.28125 H 9.984375 L 16.609375,0 H 13.90625 l -1.8125,-5.328125 z m 0,0"
           id="path82" />
      </g>
    </g>
  </g>
  <g
     fill="#ffffff"
     fill-opacity="1"
     id="g88"
     transform="translate(-209.10938,-624.49221)">
    <g
       transform="translate(784.26453,827.49418)"
       id="g87">
      <g
         id="g86">
        <path
           d="m 4.546875,-9.96875 h 5.71875 c 1.320313,0 2.269531,-0.269531 2.84375,-0.8125 0.582031,-0.539062 0.875,-1.320312 0.875,-2.34375 0,-0.925781 -0.25,-1.664062 -0.75,-2.21875 -0.5,-0.550781 -1.355469,-0.828125 -2.5625,-0.828125 h -6.125 z m 0,9.96875 H 2.0625 v -18.28125 h 8.453125 c 1.96875,0 3.457031,0.421875 4.46875,1.265625 C 15.992188,-16.179688 16.5,-14.96875 16.5,-13.375 c 0,1.054688 -0.203125,1.933594 -0.609375,2.640625 -0.40625,0.710937 -1.042969,1.292969 -1.90625,1.75 0.738281,0.273437 1.273437,0.65625 1.609375,1.15625 0.332031,0.492187 0.523438,1.25 0.578125,2.28125 l 0.15625,3.40625 c 0.01953,0.5625 0.109375,0.960937 0.265625,1.1875 0.164062,0.230469 0.394531,0.414063 0.6875,0.546875 V 0 h -3.0625 C 14.0625,-0.457031 13.945312,-1.148438 13.875,-2.078125 13.8125,-3.003906 13.78125,-3.84375 13.78125,-4.59375 c 0,-0.375 -0.03906,-0.753906 -0.109375,-1.140625 -0.0625,-0.382813 -0.210937,-0.734375 -0.4375,-1.046875 C 13.015625,-7.101562 12.6875,-7.359375 12.25,-7.546875 11.820312,-7.742188 11.242188,-7.84375 10.515625,-7.84375 h -5.96875 z m 0,0"
           id="path85" />
      </g>
    </g>
  </g>
  <g
     fill="#ffffff"
     fill-opacity="1"
     id="g91"
     transform="translate(-209.10938,-624.49221)">
    <g
       transform="translate(803.23266,827.49418)"
       id="g90">
      <g
         id="g89">
        <path
           d="m 17.1875,0 v -10.796875 c 0,-0.132813 0.0039,-0.820313 0.01563,-2.0625 0.01953,-1.238281 0.03125,-2.070313 0.03125,-2.5 H 17.15625 L 12.046875,0 H 9.59375 L 4.484375,-15.328125 H 4.40625 c 0,0.617187 0.00391,1.492187 0.015625,2.625 0.019531,1.136719 0.03125,1.773437 0.03125,1.90625 V 0 H 2.0625 v -18.28125 h 3.53125 l 5.203125,15.453125 H 10.875 L 16.046875,-18.28125 H 19.59375 V 0 Z m 0,0"
           id="path88" />
      </g>
    </g>
  </g>
  <g
     fill="#ffffff"
     fill-opacity="1"
     id="g94"
     transform="translate(-209.10938,-624.49221)">
    <g
       transform="translate(825.6699,827.49418)"
       id="g93">
      <g
         id="g92">
        <path
           d="M 9.5,0 H 7.03125 V -7.359375 L 0.125,-18.28125 H 3.015625 L 8.25,-9.5 13.5,-18.28125 h 2.90625 L 9.5,-7.359375 Z m 0,0"
           id="path91" />
      </g>
    </g>
  </g>
  <g
     fill="#ffffff"
     fill-opacity="1"
     id="g100"
     transform="translate(-209.10938,-624.49221)">
    <g
       transform="translate(849.96611,827.49418)"
       id="g99">
      <g
         id="g98">
        <path
           d="m 8.984375,-9.140625 c 0,1.136719 -0.390625,2.085937 -1.171875,2.84375 -0.773438,0.761719 -1.730469,1.140625 -2.875,1.140625 -1.136719,0 -2.085938,-0.378906 -2.84375,-1.140625 -0.75,-0.757813 -1.125,-1.707031 -1.125,-2.84375 0,-1.132813 0.375,-2.085937 1.125,-2.859375 0.757812,-0.78125 1.707031,-1.171875 2.84375,-1.171875 1.144531,0 2.101562,0.390625 2.875,1.171875 0.78125,0.773438 1.171875,1.726562 1.171875,2.859375 z m 0,0"
           id="path97" />
      </g>
    </g>
  </g>
  <g
     fill="#ffffff"
     fill-opacity="1"
     id="g106"
     transform="translate(-209.10938,-624.49221)">
    <g
       transform="translate(867.72201,827.49418)"
       id="g105">
      <g
         id="g104">
        <path
           d="m 12.828125,-12.9375 c -0.04297,-1.15625 -0.476563,-2.0625 -1.296875,-2.71875 -0.8125,-0.664062 -1.886719,-1 -3.21875,-1 -1.34375,0 -2.382812,0.277344 -3.109375,0.828125 -0.71875,0.554687 -1.078125,1.351563 -1.078125,2.390625 0,0.554688 0.15625,1.027344 0.46875,1.421875 0.320312,0.398437 0.890625,0.695313 1.703125,0.890625 l 5.21875,1.1875 c 1.40625,0.3125 2.445313,0.898438 3.125,1.75 0.6875,0.855469 1.03125,1.902344 1.03125,3.140625 0,1.804687 -0.667969,3.179687 -2,4.125 C 12.347656,0.015625 10.625,0.484375 8.5,0.484375 c -1.617188,0 -2.890625,-0.210937 -3.828125,-0.625 -0.929687,-0.414063 -1.75,-1.070313 -2.46875,-1.96875 C 1.484375,-3.015625 1.125,-4.28125 1.125,-5.90625 h 2.3125 c 0,1.355469 0.445312,2.40625 1.34375,3.15625 0.90625,0.75 2.140625,1.125 3.703125,1.125 1.507813,0 2.679687,-0.265625 3.515625,-0.796875 0.84375,-0.539063 1.265625,-1.304687 1.265625,-2.296875 0,-0.894531 -0.25,-1.5625 -0.75,-2 -0.5,-0.445312 -1.480469,-0.835938 -2.9375,-1.171875 L 5.640625,-8.8125 c -1.3125,-0.300781 -2.292969,-0.820312 -2.9375,-1.5625 -0.648437,-0.738281 -0.96875,-1.65625 -0.96875,-2.75 0,-1.632812 0.550781,-2.984375 1.65625,-4.046875 1.101563,-1.0625 2.644531,-1.59375 4.625,-1.59375 2.238281,0 3.960937,0.46875 5.171875,1.40625 1.21875,0.929687 1.875,2.402344 1.96875,4.421875 z m 0,0"
           id="path103" />
      </g>
    </g>
  </g>
  <g
     fill="#ffffff"
     fill-opacity="1"
     id="g109"
     transform="translate(-209.10938,-624.49221)">
    <g
       transform="translate(885.37216,827.49418)"
       id="g108">
      <g
         id="g107">
        <path
           d="m 17.1875,0 v -10.796875 c 0,-0.132813 0.0039,-0.820313 0.01563,-2.0625 0.01953,-1.238281 0.03125,-2.070313 0.03125,-2.5 H 17.15625 L 12.046875,0 H 9.59375 L 4.484375,-15.328125 H 4.40625 c 0,0.617187 0.00391,1.492187 0.015625,2.625 0.019531,1.136719 0.03125,1.773437 0.03125,1.90625 V 0 H 2.0625 v -18.28125 h 3.53125 l 5.203125,15.453125 H 10.875 L 16.046875,-18.28125 H 19.59375 V 0 Z m 0,0"
           id="path106" />
      </g>
    </g>
  </g>
  <g
     fill="#ffffff"
     fill-opacity="1"
     id="g112"
     transform="translate(-209.10938,-624.49221)">
    <g
       transform="translate(907.8094,827.49418)"
       id="g111">
      <g
         id="g110">
        <path
           d="M 11.203125,-7.515625 8.5,-15.5625 H 8.453125 l -2.9375,8.046875 z m -6.4375,2.1875 L 2.84375,0 H 0.3125 l 6.875,-18.28125 H 9.984375 L 16.609375,0 H 13.90625 l -1.8125,-5.328125 z m 0,0"
           id="path109" />
      </g>
    </g>
  </g>
  <g
     fill="#ffffff"
     fill-opacity="1"
     id="g115"
     transform="translate(-209.10938,-624.49221)">
    <g
       transform="translate(925.58386,827.49418)"
       id="g114">
      <g
         id="g113">
        <path
           d="m 4.546875,-9.96875 h 5.71875 c 1.320313,0 2.269531,-0.269531 2.84375,-0.8125 0.582031,-0.539062 0.875,-1.320312 0.875,-2.34375 0,-0.925781 -0.25,-1.664062 -0.75,-2.21875 -0.5,-0.550781 -1.355469,-0.828125 -2.5625,-0.828125 h -6.125 z m 0,9.96875 H 2.0625 v -18.28125 h 8.453125 c 1.96875,0 3.457031,0.421875 4.46875,1.265625 C 15.992188,-16.179688 16.5,-14.96875 16.5,-13.375 c 0,1.054688 -0.203125,1.933594 -0.609375,2.640625 -0.40625,0.710937 -1.042969,1.292969 -1.90625,1.75 0.738281,0.273437 1.273437,0.65625 1.609375,1.15625 0.332031,0.492187 0.523438,1.25 0.578125,2.28125 l 0.15625,3.40625 c 0.01953,0.5625 0.109375,0.960937 0.265625,1.1875 0.164062,0.230469 0.394531,0.414063 0.6875,0.546875 V 0 h -3.0625 C 14.0625,-0.457031 13.945312,-1.148438 13.875,-2.078125 13.8125,-3.003906 13.78125,-3.84375 13.78125,-4.59375 c 0,-0.375 -0.03906,-0.753906 -0.109375,-1.140625 -0.0625,-0.382813 -0.210937,-0.734375 -0.4375,-1.046875 C 13.015625,-7.101562 12.6875,-7.359375 12.25,-7.546875 11.820312,-7.742188 11.242188,-7.84375 10.515625,-7.84375 h -5.96875 z m 0,0"
           id="path112" />
      </g>
    </g>
  </g>
  <g
     fill="#ffffff"
     fill-opacity="1"
     id="g118"
     transform="translate(-209.10938,-624.49221)">
    <g
       transform="translate(944.55203,827.49418)"
       id="g117">
      <g
         id="g116">
        <path
           d="M 6.46875,-16.09375 H 0.3125 v -2.1875 h 14.84375 v 2.1875 H 8.9375 V 0 H 6.46875 Z m 0,0"
           id="path115" />
      </g>
    </g>
  </g>
  <g
     fill="#ffffff"
     fill-opacity="1"
     id="g124"
     transform="translate(-209.10938,-624.49221)">
    <g
       transform="translate(967.81617,827.49418)"
       id="g123">
      <g
         id="g122">
        <path
           d="M 16.53125,0 H 14.046875 V -8.53125 H 4.5 V 0 H 2.0625 V -18.28125 H 4.5 v 7.5625 h 9.546875 v -7.5625 h 2.484375 z m 0,0"
           id="path121" />
      </g>
    </g>
  </g>
  <g
     fill="#ffffff"
     fill-opacity="1"
     id="g127"
     transform="translate(-209.10938,-624.49221)">
    <g
       transform="translate(987.19468,827.49418)"
       id="g126">
      <g
         id="g125">
        <path
           d="m 16.28125,-9.140625 c 0,-2.132813 -0.570312,-3.90625 -1.703125,-5.3125 -1.125,-1.414063 -2.683594,-2.125 -4.671875,-2.125 -1.960938,0 -3.511719,0.710937 -4.65625,2.125 -1.136719,1.40625 -1.703125,3.179687 -1.703125,5.3125 0,2.210937 0.578125,4 1.734375,5.375 1.164062,1.375 2.707031,2.0625 4.625,2.0625 1.882812,0 3.414062,-0.671875 4.59375,-2.015625 1.1875,-1.34375 1.78125,-3.148438 1.78125,-5.421875 z m 2.53125,0 c 0,2.730469 -0.789062,5.015625 -2.359375,6.859375 C 14.878906,-0.4375 12.695312,0.484375 9.90625,0.484375 7.101562,0.484375 4.914062,-0.4375 3.34375,-2.28125 1.78125,-4.125 1,-6.410156 1,-9.140625 1,-11.878906 1.78125,-14.164062 3.34375,-16 c 1.570312,-1.84375 3.757812,-2.765625 6.5625,-2.765625 2.875,0 5.078125,0.9375 6.609375,2.8125 1.53125,1.875 2.296875,4.148437 2.296875,6.8125 z m 0,0"
           id="path124" />
      </g>
    </g>
  </g>
  <g
     fill="#ffffff"
     fill-opacity="1"
     id="g130"
     transform="translate(-209.10938,-624.49221)">
    <g
       transform="translate(1007.7917,827.49418)"
       id="g129">
      <g
         id="g128">
        <path
           d="m 17.1875,0 v -10.796875 c 0,-0.132813 0.0039,-0.820313 0.01563,-2.0625 0.01953,-1.238281 0.03125,-2.070313 0.03125,-2.5 H 17.15625 L 12.046875,0 H 9.59375 L 4.484375,-15.328125 H 4.40625 c 0,0.617187 0.00391,1.492187 0.015625,2.625 0.019531,1.136719 0.03125,1.773437 0.03125,1.90625 V 0 H 2.0625 v -18.28125 h 3.53125 l 5.203125,15.453125 H 10.875 L 16.046875,-18.28125 H 19.59375 V 0 Z m 0,0"
           id="path127" />
      </g>
    </g>
  </g>
  <g
     fill="#ffffff"
     fill-opacity="1"
     id="g133"
     transform="translate(-209.10938,-624.49221)">
    <g
       transform="translate(1030.2289,827.49418)"
       id="g132">
      <g
         id="g131">
        <path
           d="m 15.5625,0 h -13.5 v -18.28125 h 13.328125 v 2.1875 H 4.546875 V -10.5 h 9.984375 v 2.1875 H 4.546875 v 6.125 H 15.5625 Z m 0,0"
           id="path130" />
      </g>
    </g>
  </g>
  <g
     fill="#ffffff"
     fill-opacity="1"
     id="g139"
     transform="translate(-209.10938,-624.49221)">
    <g
       transform="translate(1054.5748,827.49418)"
       id="g138">
      <g
         id="g137">
        <path
           d="m 8.984375,-9.140625 c 0,1.136719 -0.390625,2.085937 -1.171875,2.84375 -0.773438,0.761719 -1.730469,1.140625 -2.875,1.140625 -1.136719,0 -2.085938,-0.378906 -2.84375,-1.140625 -0.75,-0.757813 -1.125,-1.707031 -1.125,-2.84375 0,-1.132813 0.375,-2.085937 1.125,-2.859375 0.757812,-0.78125 1.707031,-1.171875 2.84375,-1.171875 1.144531,0 2.101562,0.390625 2.875,1.171875 0.78125,0.773438 1.171875,1.726562 1.171875,2.859375 z m 0,0"
           id="path136" />
      </g>
    </g>
  </g>
  <g
     fill="#ffffff"
     fill-opacity="1"
     id="g145"
     transform="translate(-209.10938,-624.49221)">
    <g
       transform="translate(1072.3307,827.49418)"
       id="g144">
      <g
         id="g143">
        <path
           d="M 11.203125,-7.515625 8.5,-15.5625 H 8.453125 l -2.9375,8.046875 z m -6.4375,2.1875 L 2.84375,0 H 0.3125 l 6.875,-18.28125 H 9.984375 L 16.609375,0 H 13.90625 l -1.8125,-5.328125 z m 0,0"
           id="path142" />
      </g>
    </g>
  </g>
  <g
     fill="#ffffff"
     fill-opacity="1"
     id="g148"
     transform="translate(-209.10938,-624.49221)">
    <g
       transform="translate(1090.1052,827.49418)"
       id="g147">
      <g
         id="g146">
        <path
           d="m 16.328125,-18.28125 v 11.859375 c 0,2.03125 -0.640625,3.695313 -1.921875,4.984375 -1.28125,1.28125 -3.09375,1.921875 -5.4375,1.921875 -2.1875,0 -3.90625,-0.59375 -5.15625,-1.78125 -1.25,-1.1875 -1.875,-2.78125 -1.875,-4.78125 V -18.28125 H 4.375 v 11.5 c 0,1.6875 0.421875,2.960938 1.265625,3.8125 0.84375,0.84375 1.96875,1.265625 3.375,1.265625 1.507813,0 2.6875,-0.421875 3.53125,-1.265625 0.851563,-0.851562 1.28125,-2.109375 1.28125,-3.765625 V -18.28125 Z m 0,0"
           id="path145" />
      </g>
    </g>
  </g>
  <g
     fill="#ffffff"
     fill-opacity="1"
     id="g151"
     transform="translate(-209.10938,-624.49221)">
    <g
       transform="translate(1109.1231,827.49418)"
       id="g150">
      <g
         id="g149">
        <path
           d="M 6.46875,-16.09375 H 0.3125 v -2.1875 h 14.84375 v 2.1875 H 8.9375 V 0 H 6.46875 Z m 0,0"
           id="path148" />
      </g>
    </g>
  </g>
  <g
     fill="#ffffff"
     fill-opacity="1"
     id="g154"
     transform="translate(-209.10938,-624.49221)">
    <g
       transform="translate(1125.3806,827.49418)"
       id="g153">
      <g
         id="g152">
        <path
           d="m 16.28125,-9.140625 c 0,-2.132813 -0.570312,-3.90625 -1.703125,-5.3125 -1.125,-1.414063 -2.683594,-2.125 -4.671875,-2.125 -1.960938,0 -3.511719,0.710937 -4.65625,2.125 -1.136719,1.40625 -1.703125,3.179687 -1.703125,5.3125 0,2.210937 0.578125,4 1.734375,5.375 1.164062,1.375 2.707031,2.0625 4.625,2.0625 1.882812,0 3.414062,-0.671875 4.59375,-2.015625 1.1875,-1.34375 1.78125,-3.148438 1.78125,-5.421875 z m 2.53125,0 c 0,2.730469 -0.789062,5.015625 -2.359375,6.859375 C 14.878906,-0.4375 12.695312,0.484375 9.90625,0.484375 7.101562,0.484375 4.914062,-0.4375 3.34375,-2.28125 1.78125,-4.125 1,-6.410156 1,-9.140625 1,-11.878906 1.78125,-14.164062 3.34375,-16 c 1.570312,-1.84375 3.757812,-2.765625 6.5625,-2.765625 2.875,0 5.078125,0.9375 6.609375,2.8125 1.53125,1.875 2.296875,4.148437 2.296875,6.8125 z m 0,0"
           id="path151" />
      </g>
    </g>
  </g>
  <g
     fill="#ffffff"
     fill-opacity="1"
     id="g157"
     transform="translate(-209.10938,-624.49221)">
    <g
       transform="translate(1145.9776,827.49418)"
       id="g156">
      <g
         id="g155">
        <path
           d="m 17.1875,0 v -10.796875 c 0,-0.132813 0.0039,-0.820313 0.01563,-2.0625 0.01953,-1.238281 0.03125,-2.070313 0.03125,-2.5 H 17.15625 L 12.046875,0 H 9.59375 L 4.484375,-15.328125 H 4.40625 c 0,0.617187 0.00391,1.492187 0.015625,2.625 0.019531,1.136719 0.03125,1.773437 0.03125,1.90625 V 0 H 2.0625 v -18.28125 h 3.53125 l 5.203125,15.453125 H 10.875 L 16.046875,-18.28125 H 19.59375 V 0 Z m 0,0"
           id="path154" />
      </g>
    </g>
  </g>
  <g
     fill="#ffffff"
     fill-opacity="1"
     id="g160"
     transform="translate(-209.10938,-624.49221)">
    <g
       transform="translate(1168.4149,827.49418)"
       id="g159">
      <g
         id="g158">
        <path
           d="M 11.203125,-7.515625 8.5,-15.5625 H 8.453125 l -2.9375,8.046875 z m -6.4375,2.1875 L 2.84375,0 H 0.3125 l 6.875,-18.28125 H 9.984375 L 16.609375,0 H 13.90625 l -1.8125,-5.328125 z m 0,0"
           id="path157" />
      </g>
    </g>
  </g>
  <g
     fill="#ffffff"
     fill-opacity="1"
     id="g163"
     transform="translate(-209.10938,-624.49221)">
    <g
       transform="translate(1186.1894,827.49418)"
       id="g162">
      <g
         id="g161">
        <path
           d="M 6.46875,-16.09375 H 0.3125 v -2.1875 h 14.84375 v 2.1875 H 8.9375 V 0 H 6.46875 Z m 0,0"
           id="path160" />
      </g>
    </g>
  </g>
  <g
     fill="#ffffff"
     fill-opacity="1"
     id="g166"
     transform="translate(-209.10938,-624.49221)">
    <g
       transform="translate(1202.4469,827.49418)"
       id="g165">
      <g
         id="g164">
        <path
           d="M 9.5,0 H 7.03125 V -7.359375 L 0.125,-18.28125 H 3.015625 L 8.25,-9.5 13.5,-18.28125 h 2.90625 L 9.5,-7.359375 Z m 0,0"
           id="path163" />
      </g>
    </g>
  </g>
  <g
     fill="#ffffff"
     fill-opacity="1"
     id="g169"
     transform="translate(-209.10938,-624.49221)">
    <g
       transform="translate(1219.7365,827.49418)"
       id="g168">
      <g
         id="g167">
        <path
           d="M 4.5,0 H 2.0625 V -18.28125 H 4.5 v 8.859375 l 8.875,-8.859375 h 3.40625 l -7.609375,7.375 L 16.984375,0 h -3.1875 L 7.40625,-9.171875 4.5,-6.421875 Z m 0,0"
           id="path166" />
      </g>
    </g>
  </g>
  <g
     fill="#ffffff"
     fill-opacity="1"
     id="g172"
     transform="translate(-209.10938,-624.49221)">
    <g
       transform="translate(1237.6353,827.49418)"
       id="g171">
      <g
         id="g170">
        <path
           d="M 11.203125,-7.515625 8.5,-15.5625 H 8.453125 l -2.9375,8.046875 z m -6.4375,2.1875 L 2.84375,0 H 0.3125 l 6.875,-18.28125 H 9.984375 L 16.609375,0 H 13.90625 l -1.8125,-5.328125 z m 0,0"
           id="path169" />
      </g>
    </g>
  </g>
  <g
     fill="#ffffff"
     fill-opacity="1"
     id="g178"
     transform="translate(-209.10938,-624.49221)">
    <g
       transform="translate(1262.4164,827.49418)"
       id="g177">
      <g
         id="g176">
        <path
           d="m 2.0625,-18.28125 h 8.015625 c 1.582031,0 2.84375,0.429688 3.78125,1.28125 0.9375,0.855469 1.40625,1.964844 1.40625,3.328125 0,0.8125 -0.210937,1.558594 -0.625,2.234375 -0.40625,0.679688 -1.015625,1.203125 -1.828125,1.578125 1.132812,0.429687 1.96875,1 2.5,1.71875 0.53125,0.710937 0.796875,1.625 0.796875,2.75 0,1.574219 -0.570313,2.867187 -1.703125,3.875 C 13.269531,-0.503906 11.769531,0 9.90625,0 H 2.0625 Z M 4.5,-2.109375 h 5.28125 c 1.289062,0 2.257812,-0.300781 2.90625,-0.90625 0.644531,-0.601563 0.96875,-1.414063 0.96875,-2.4375 0,-1.03125 -0.367188,-1.800781 -1.09375,-2.3125 C 11.84375,-8.273438 10.78125,-8.53125 9.375,-8.53125 H 4.5 Z m 0,-8.4375 h 4.484375 c 1.3125,0 2.269531,-0.234375 2.875,-0.703125 0.613281,-0.476562 0.921875,-1.226562 0.921875,-2.25 0,-0.863281 -0.289062,-1.523438 -0.859375,-1.984375 -0.574219,-0.457031 -1.542969,-0.6875 -2.90625,-0.6875 H 4.5 Z m 0,0"
           id="path175" />
      </g>
    </g>
  </g>
  <g
     fill="#ffffff"
     fill-opacity="1"
     id="g181"
     transform="translate(-209.10938,-624.49221)">
    <g
       transform="translate(1280.3152,827.49418)"
       id="g180">
      <g
         id="g179">
        <path
           d="m 4.546875,-9.96875 h 5.71875 c 1.320313,0 2.269531,-0.269531 2.84375,-0.8125 0.582031,-0.539062 0.875,-1.320312 0.875,-2.34375 0,-0.925781 -0.25,-1.664062 -0.75,-2.21875 -0.5,-0.550781 -1.355469,-0.828125 -2.5625,-0.828125 h -6.125 z m 0,9.96875 H 2.0625 v -18.28125 h 8.453125 c 1.96875,0 3.457031,0.421875 4.46875,1.265625 C 15.992188,-16.179688 16.5,-14.96875 16.5,-13.375 c 0,1.054688 -0.203125,1.933594 -0.609375,2.640625 -0.40625,0.710937 -1.042969,1.292969 -1.90625,1.75 0.738281,0.273437 1.273437,0.65625 1.609375,1.15625 0.332031,0.492187 0.523438,1.25 0.578125,2.28125 l 0.15625,3.40625 c 0.01953,0.5625 0.109375,0.960937 0.265625,1.1875 0.164062,0.230469 0.394531,0.414063 0.6875,0.546875 V 0 h -3.0625 C 14.0625,-0.457031 13.945312,-1.148438 13.875,-2.078125 13.8125,-3.003906 13.78125,-3.84375 13.78125,-4.59375 c 0,-0.375 -0.03906,-0.753906 -0.109375,-1.140625 -0.0625,-0.382813 -0.210937,-0.734375 -0.4375,-1.046875 C 13.015625,-7.101562 12.6875,-7.359375 12.25,-7.546875 11.820312,-7.742188 11.242188,-7.84375 10.515625,-7.84375 h -5.96875 z m 0,0"
           id="path178" />
      </g>
    </g>
  </g>
  <g
     fill="#ffffff"
     fill-opacity="1"
     id="g184"
     transform="translate(-209.10938,-624.49221)">
    <g
       transform="translate(1299.2834,827.49418)"
       id="g183">
      <g
         id="g182">
        <path
           d="M 11.203125,-7.515625 8.5,-15.5625 H 8.453125 l -2.9375,8.046875 z m -6.4375,2.1875 L 2.84375,0 H 0.3125 l 6.875,-18.28125 H 9.984375 L 16.609375,0 H 13.90625 l -1.8125,-5.328125 z m 0,0"
           id="path181" />
      </g>
    </g>
  </g>
  <g
     fill="#ffffff"
     fill-opacity="1"
     id="g187"
     transform="translate(-209.10938,-624.49221)">
    <g
       transform="translate(1317.0579,827.49418)"
       id="g186">
      <g
         id="g185">
        <path
           d="m 17.1875,0 v -10.796875 c 0,-0.132813 0.0039,-0.820313 0.01563,-2.0625 0.01953,-1.238281 0.03125,-2.070313 0.03125,-2.5 H 17.15625 L 12.046875,0 H 9.59375 L 4.484375,-15.328125 H 4.40625 c 0,0.617187 0.00391,1.492187 0.015625,2.625 0.019531,1.136719 0.03125,1.773437 0.03125,1.90625 V 0 H 2.0625 v -18.28125 h 3.53125 l 5.203125,15.453125 H 10.875 L 16.046875,-18.28125 H 19.59375 V 0 Z m 0,0"
           id="path184" />
      </g>
    </g>
  </g>
</svg>
